<svg width="70" height="70" viewBox="0 0 70 70" fill="none" xmlns="http://www.w3.org/2000/svg">
<path d="M56.9598 20.1658C57.6284 18.0089 57.8429 15.7369 57.5897 13.4929C57.3365 11.249 56.6211 9.08193 55.4887 7.12827C55.2966 6.79565 55.0204 6.51946 54.6878 6.32747C54.3551 6.13547 53.9778 6.03443 53.5938 6.03452C51.0458 6.02919 48.532 6.61985 46.253 7.75932C43.9741 8.89879 41.9932 10.5555 40.4688 12.597H33.9062C32.3818 10.5555 30.4009 8.89879 28.122 7.75932C25.843 6.61985 23.3292 6.02919 20.7812 6.03452C20.3972 6.03443 20.0199 6.13547 19.6872 6.32747C19.3546 6.51946 19.0784 6.79565 18.8863 7.12827C17.7539 9.08193 17.0385 11.249 16.7853 13.4929C16.5321 15.7369 16.7466 18.0089 17.4152 20.1658C16.0637 22.5248 15.3397 25.1909 15.3125 27.9095V30.097C15.3171 33.7983 16.6607 37.3729 19.0953 40.1608C21.5299 42.9486 24.8909 44.7615 28.5578 45.2646C27.061 47.1799 26.2486 49.5412 26.25 51.972V54.1595H19.6875C17.947 54.1595 16.2778 53.4681 15.0471 52.2374C13.8164 51.0067 13.125 49.3375 13.125 47.597C13.125 46.1607 12.8421 44.7384 12.2924 43.4114C11.7428 42.0844 10.9371 40.8787 9.92148 39.863C8.90584 38.8474 7.7001 38.0417 6.3731 37.4921C5.0461 36.9424 3.62383 36.6595 2.1875 36.6595C1.60734 36.6595 1.05094 36.89 0.640704 37.3002C0.230468 37.7105 0 38.2669 0 38.847C0 39.4272 0.230468 39.9836 0.640704 40.3938C1.05094 40.8041 1.60734 41.0345 2.1875 41.0345C3.92798 41.0345 5.59718 41.7259 6.82789 42.9566C8.0586 44.1873 8.75 45.8565 8.75 47.597C8.75 50.4978 9.90234 53.2798 11.9535 55.331C14.0047 57.3822 16.7867 58.5345 19.6875 58.5345H26.25V62.9095C26.25 63.4897 26.4805 64.0461 26.8907 64.4563C27.3009 64.8666 27.8573 65.097 28.4375 65.097C29.0177 65.097 29.5741 64.8666 29.9843 64.4563C30.3945 64.0461 30.625 63.4897 30.625 62.9095V51.972C30.625 50.2315 31.3164 48.5623 32.5471 47.3316C33.7778 46.1009 35.447 45.4095 37.1875 45.4095C38.928 45.4095 40.5972 46.1009 41.8279 47.3316C43.0586 48.5623 43.75 50.2315 43.75 51.972V62.9095C43.75 63.4897 43.9805 64.0461 44.3907 64.4563C44.8009 64.8666 45.3573 65.097 45.9375 65.097C46.5177 65.097 47.0741 64.8666 47.4843 64.4563C47.8945 64.0461 48.125 63.4897 48.125 62.9095V51.972C48.1264 49.5412 47.314 47.1799 45.8172 45.2646C49.4841 44.7615 52.8452 42.9486 55.2797 40.1608C57.7143 37.3729 59.0579 33.7983 59.0625 30.097V27.9095C59.0353 25.1909 58.3113 22.5248 56.9598 20.1658ZM54.6875 30.097C54.6875 32.9978 53.5352 35.7798 51.484 37.831C49.4328 39.8822 46.6508 41.0345 43.75 41.0345H30.625C27.7242 41.0345 24.9422 39.8822 22.891 37.831C20.8398 35.7798 19.6875 32.9978 19.6875 30.097V27.9095C19.7143 25.7221 20.3692 23.5884 21.5742 21.7626C21.7988 21.4666 21.9443 21.1181 21.997 20.7502C22.0496 20.3823 22.0076 20.0071 21.875 19.6599C21.3052 18.1904 21.031 16.623 21.0681 15.0474C21.1051 13.4717 21.4528 11.9189 22.091 10.4779C23.8813 10.6705 25.6052 11.2635 27.135 12.213C28.6649 13.1626 29.9614 14.4442 30.9285 15.963C31.1256 16.2712 31.3968 16.525 31.7173 16.7013C32.0379 16.8776 32.3975 16.9707 32.7633 16.972H41.609C41.9762 16.972 42.3375 16.8796 42.6595 16.7033C42.9816 16.5269 43.2541 16.2724 43.452 15.963C44.4189 14.4441 45.7154 13.1623 47.2453 12.2128C48.7751 11.2632 50.4992 10.6703 52.2895 10.4779C52.9268 11.9193 53.2735 13.4723 53.3096 15.0479C53.3458 16.6235 53.0706 18.1908 52.5 19.6599C52.3678 20.0038 52.3236 20.3752 52.3713 20.7405C52.4191 21.1058 52.5573 21.4534 52.7734 21.7517C53.9904 23.5775 54.655 25.7156 54.6875 27.9095V30.097Z" fill="white"/>
</svg>
