<svg width="429" height="81" viewBox="0 0 429 81" fill="none" xmlns="http://www.w3.org/2000/svg">
<path d="M56.9598 25.6658C57.6284 23.5089 57.8429 21.2369 57.5897 18.9929C57.3365 16.749 56.6211 14.5819 55.4887 12.6283C55.2966 12.2957 55.0204 12.0195 54.6878 11.8275C54.3551 11.6355 53.9778 11.5344 53.5938 11.5345C51.0458 11.5292 48.532 12.1199 46.253 13.2593C43.9741 14.3988 41.9932 16.0555 40.4688 18.097H33.9062C32.3818 16.0555 30.4009 14.3988 28.122 13.2593C25.843 12.1199 23.3292 11.5292 20.7812 11.5345C20.3972 11.5344 20.0199 11.6355 19.6872 11.8275C19.3546 12.0195 19.0784 12.2957 18.8863 12.6283C17.7539 14.5819 17.0385 16.749 16.7853 18.9929C16.5321 21.2369 16.7466 23.5089 17.4152 25.6658C16.0637 28.0248 15.3397 30.6909 15.3125 33.4095V35.597C15.3171 39.2983 16.6607 42.8729 19.0953 45.6608C21.5299 48.4486 24.8909 50.2615 28.5578 50.7646C27.061 52.6799 26.2486 55.0412 26.25 57.472V59.6595H19.6875C17.947 59.6595 16.2778 58.9681 15.0471 57.7374C13.8164 56.5067 13.125 54.8375 13.125 53.097C13.125 51.6607 12.8421 50.2384 12.2924 48.9114C11.7428 47.5844 10.9371 46.3787 9.92148 45.363C8.90584 44.3474 7.7001 43.5417 6.3731 42.9921C5.0461 42.4424 3.62383 42.1595 2.1875 42.1595C1.60734 42.1595 1.05094 42.39 0.640704 42.8002C0.230468 43.2105 0 43.7669 0 44.347C0 44.9272 0.230468 45.4836 0.640704 45.8938C1.05094 46.3041 1.60734 46.5345 2.1875 46.5345C3.92798 46.5345 5.59718 47.2259 6.82789 48.4566C8.0586 49.6873 8.75 51.3565 8.75 53.097C8.75 55.9978 9.90234 58.7798 11.9535 60.831C14.0047 62.8822 16.7867 64.0345 19.6875 64.0345H26.25V68.4095C26.25 68.9897 26.4805 69.5461 26.8907 69.9563C27.3009 70.3666 27.8573 70.597 28.4375 70.597C29.0177 70.597 29.5741 70.3666 29.9843 69.9563C30.3945 69.5461 30.625 68.9897 30.625 68.4095V57.472C30.625 55.7315 31.3164 54.0623 32.5471 52.8316C33.7778 51.6009 35.447 50.9095 37.1875 50.9095C38.928 50.9095 40.5972 51.6009 41.8279 52.8316C43.0586 54.0623 43.75 55.7315 43.75 57.472V68.4095C43.75 68.9897 43.9805 69.5461 44.3907 69.9563C44.8009 70.3666 45.3573 70.597 45.9375 70.597C46.5177 70.597 47.0741 70.3666 47.4843 69.9563C47.8945 69.5461 48.125 68.9897 48.125 68.4095V57.472C48.1264 55.0412 47.314 52.6799 45.8172 50.7646C49.4841 50.2615 52.8452 48.4486 55.2797 45.6608C57.7143 42.8729 59.0579 39.2983 59.0625 35.597V33.4095C59.0353 30.6909 58.3113 28.0248 56.9598 25.6658ZM54.6875 35.597C54.6875 38.4978 53.5352 41.2798 51.484 43.331C49.4328 45.3822 46.6508 46.5345 43.75 46.5345H30.625C27.7242 46.5345 24.9422 45.3822 22.891 43.331C20.8398 41.2798 19.6875 38.4978 19.6875 35.597V33.4095C19.7143 31.2221 20.3692 29.0884 21.5742 27.2626C21.7988 26.9666 21.9443 26.6181 21.997 26.2502C22.0496 25.8823 22.0076 25.5071 21.875 25.1599C21.3052 23.6905 21.031 22.123 21.0681 20.5474C21.1051 18.9717 21.4528 17.4189 22.091 15.9779C23.8813 16.1705 25.6052 16.7635 27.135 17.713C28.6649 18.6626 29.9614 19.9442 30.9285 21.463C31.1256 21.7712 31.3968 22.025 31.7173 22.2013C32.0379 22.3776 32.3975 22.4707 32.7633 22.472H41.609C41.9762 22.472 42.3375 22.3796 42.6595 22.2033C42.9816 22.027 43.2541 21.7724 43.452 21.463C44.4189 19.9441 45.7154 18.6623 47.2453 17.7128C48.7751 16.7632 50.4992 16.1703 52.2895 15.9779C52.9268 17.4193 53.2735 18.9723 53.3096 20.5479C53.3458 22.1235 53.0706 23.6908 52.5 25.1599C52.3678 25.5038 52.3236 25.8752 52.3713 26.2405C52.4191 26.6058 52.5573 26.9534 52.7734 27.2517C53.9904 29.0775 54.655 31.2156 54.6875 33.4095V35.597Z" fill="white"/>
<path d="M98.512 33.08C97.828 31.82 96.838 30.866 95.542 30.218C94.282 29.534 92.788 29.192 91.06 29.192C88.072 29.192 85.678 30.182 83.878 32.162C82.078 34.106 81.178 36.716 81.178 39.992C81.178 43.484 82.114 46.22 83.986 48.2C85.894 50.144 88.504 51.116 91.816 51.116C94.084 51.116 95.992 50.54 97.54 49.388C99.124 48.236 100.276 46.58 100.996 44.42H89.278V37.616H109.366V46.202C108.682 48.506 107.512 50.648 105.856 52.628C104.236 54.608 102.166 56.21 99.646 57.434C97.126 58.658 94.282 59.27 91.114 59.27C87.37 59.27 84.022 58.46 81.07 56.84C78.154 55.184 75.868 52.898 74.212 49.982C72.592 47.066 71.782 43.736 71.782 39.992C71.782 36.248 72.592 32.918 74.212 30.002C75.868 27.05 78.154 24.764 81.07 23.144C83.986 21.488 87.316 20.66 91.06 20.66C95.596 20.66 99.412 21.758 102.508 23.954C105.64 26.15 107.71 29.192 108.718 33.08H98.512ZM123.715 21.092V59H114.481V21.092H123.715ZM157.677 21.092V28.49H147.633V59H138.399V28.49H128.355V21.092H157.677ZM195.143 21.092V59H185.909V43.394H171.545V59H162.311V21.092H171.545V35.942H185.909V21.092H195.143ZM210.881 21.092V43.772C210.881 46.04 211.439 47.786 212.555 49.01C213.671 50.234 215.309 50.846 217.469 50.846C219.629 50.846 221.285 50.234 222.437 49.01C223.589 47.786 224.165 46.04 224.165 43.772V21.092H233.399V43.718C233.399 47.102 232.679 49.964 231.239 52.304C229.799 54.644 227.855 56.408 225.407 57.596C222.995 58.784 220.295 59.378 217.307 59.378C214.319 59.378 211.637 58.802 209.261 57.65C206.921 56.462 205.067 54.698 203.699 52.358C202.331 49.982 201.647 47.102 201.647 43.718V21.092H210.881ZM262.833 39.56C265.029 40.028 266.793 41.126 268.125 42.854C269.457 44.546 270.123 46.49 270.123 48.686C270.123 51.854 269.007 54.374 266.775 56.246C264.579 58.082 261.501 59 257.541 59H239.883V21.092H256.947C260.799 21.092 263.805 21.974 265.965 23.738C268.161 25.502 269.259 27.896 269.259 30.92C269.259 33.152 268.665 35.006 267.477 36.482C266.325 37.958 264.777 38.984 262.833 39.56ZM249.117 36.428H255.165C256.677 36.428 257.829 36.104 258.621 35.456C259.449 34.772 259.863 33.782 259.863 32.486C259.863 31.19 259.449 30.2 258.621 29.516C257.829 28.832 256.677 28.49 255.165 28.49H249.117V36.428ZM255.921 51.548C257.469 51.548 258.657 51.206 259.485 50.522C260.349 49.802 260.781 48.776 260.781 47.444C260.781 46.112 260.331 45.068 259.431 44.312C258.567 43.556 257.361 43.178 255.813 43.178H249.117V51.548H255.921ZM309.872 39.56C312.068 40.028 313.832 41.126 315.164 42.854C316.496 44.546 317.162 46.49 317.162 48.686C317.162 51.854 316.046 54.374 313.814 56.246C311.618 58.082 308.54 59 304.58 59H286.922V21.092H303.986C307.838 21.092 310.844 21.974 313.004 23.738C315.2 25.502 316.298 27.896 316.298 30.92C316.298 33.152 315.704 35.006 314.516 36.482C313.364 37.958 311.816 38.984 309.872 39.56ZM296.156 36.428H302.204C303.716 36.428 304.868 36.104 305.66 35.456C306.488 34.772 306.902 33.782 306.902 32.486C306.902 31.19 306.488 30.2 305.66 29.516C304.868 28.832 303.716 28.49 302.204 28.49H296.156V36.428ZM302.96 51.548C304.508 51.548 305.696 51.206 306.524 50.522C307.388 49.802 307.82 48.776 307.82 47.444C307.82 46.112 307.37 45.068 306.47 44.312C305.606 43.556 304.4 43.178 302.852 43.178H296.156V51.548H302.96ZM331.752 51.872H343.848V59H322.518V21.092H331.752V51.872ZM366.18 59.378C362.616 59.378 359.34 58.55 356.352 56.894C353.4 55.238 351.042 52.934 349.278 49.982C347.55 46.994 346.686 43.646 346.686 39.938C346.686 36.23 347.55 32.9 349.278 29.948C351.042 26.996 353.4 24.692 356.352 23.036C359.34 21.38 362.616 20.552 366.18 20.552C369.744 20.552 373.002 21.38 375.954 23.036C378.942 24.692 381.282 26.996 382.974 29.948C384.702 32.9 385.566 36.23 385.566 39.938C385.566 43.646 384.702 46.994 382.974 49.982C381.246 52.934 378.906 55.238 375.954 56.894C373.002 58.55 369.744 59.378 366.18 59.378ZM366.18 50.954C369.204 50.954 371.616 49.946 373.416 47.93C375.252 45.914 376.17 43.25 376.17 39.938C376.17 36.59 375.252 33.926 373.416 31.946C371.616 29.93 369.204 28.922 366.18 28.922C363.12 28.922 360.672 29.912 358.836 31.892C357.036 33.872 356.136 36.554 356.136 39.938C356.136 43.286 357.036 45.968 358.836 47.984C360.672 49.964 363.12 50.954 366.18 50.954ZM415.867 33.08C415.183 31.82 414.193 30.866 412.897 30.218C411.637 29.534 410.143 29.192 408.415 29.192C405.427 29.192 403.033 30.182 401.233 32.162C399.433 34.106 398.533 36.716 398.533 39.992C398.533 43.484 399.469 46.22 401.341 48.2C403.249 50.144 405.859 51.116 409.171 51.116C411.439 51.116 413.347 50.54 414.895 49.388C416.479 48.236 417.631 46.58 418.351 44.42H406.633V37.616H426.721V46.202C426.037 48.506 424.867 50.648 423.211 52.628C421.591 54.608 419.521 56.21 417.001 57.434C414.481 58.658 411.637 59.27 408.469 59.27C404.725 59.27 401.377 58.46 398.425 56.84C395.509 55.184 393.223 52.898 391.567 49.982C389.947 47.066 389.137 43.736 389.137 39.992C389.137 36.248 389.947 32.918 391.567 30.002C393.223 27.05 395.509 24.764 398.425 23.144C401.341 21.488 404.671 20.66 408.415 20.66C412.951 20.66 416.767 21.758 419.863 23.954C422.995 26.15 425.065 29.192 426.073 33.08H415.867Z" fill="white"/>
</svg>
